<svg width="127" height="126" viewBox="0 0 127 126" fill="none" xmlns="http://www.w3.org/2000/svg">
<circle cx="63.434" cy="62.8325" r="62.8325" fill="url(#paint0_linear_1_518)"/>
<path d="M91.6459 69.9102H36.5352C30.5962 69.9102 25.7344 74.5876 25.7344 80.3126C25.7344 86.0302 30.5962 90.715 36.5352 90.715H91.6459C97.5848 90.715 102.447 86.0376 102.447 80.3126C102.454 74.5876 97.5922 69.9102 91.6459 69.9102Z" fill="#EDC391"/>
<path d="M93.4252 43.4631C86.3354 32.6771 77.1945 28.9883 63.9148 28.9883C50.6351 28.9883 41.4943 32.6697 34.4044 43.4631C29.2106 51.3719 27.9564 63.8032 29.5573 76.6107C31.0993 88.9239 32.3756 95.6818 40.0188 102.58C46.6586 108.57 55.674 109.862 63.4058 109.862H64.4239C72.1556 109.862 81.1784 108.57 87.8109 102.58C95.4541 95.6818 96.7304 88.9239 98.2723 76.6107C99.8733 63.8032 98.6191 51.3645 93.4252 43.4631Z" fill="#F7DECE"/>
<path d="M74.905 44.6416C75.0083 44.5309 75.1116 44.4276 75.2149 44.3169C75.2887 44.2358 75.3625 44.1473 75.4362 44.0661C75.6059 43.8669 75.7682 43.6677 75.9232 43.4611L75.9896 43.3726C76.1371 43.1734 76.2699 42.9668 76.4027 42.7529C76.4396 42.6939 76.4765 42.6275 76.5134 42.5684C76.6388 42.3545 76.7642 42.1405 76.8822 41.9118C76.9044 41.875 76.9191 41.8454 76.9339 41.8086C77.2142 41.2552 77.4577 40.6576 77.6569 40.0306L77.679 39.9642C78.0848 38.6583 78.3209 37.2049 78.3209 35.5671C78.3209 32.2915 77.1405 29.7019 75.3403 27.7468C75.3182 27.7247 75.3034 27.71 75.2887 27.6878C75.1485 27.5403 75.001 27.3927 74.8534 27.2452L74.7649 27.1566C74.5932 26.9933 74.416 26.8359 74.2337 26.6845C74.0861 26.5591 73.9386 26.441 73.791 26.323C73.7541 26.2935 73.7173 26.2713 73.6877 26.2418L73.2008 25.8877C73.1713 25.8729 73.1492 25.8508 73.1197 25.8361C72.5295 25.4377 71.9171 25.0835 71.2826 24.7811C71.2605 24.7663 71.231 24.7589 71.2089 24.7442C71.0244 24.6556 70.84 24.5745 70.6555 24.4933L70.4859 24.4196C70.3236 24.3532 70.1612 24.2868 69.9989 24.2277C69.9399 24.2056 69.8735 24.1835 69.8145 24.1613C69.6596 24.1023 69.5046 24.0507 69.3571 23.999L69.1579 23.9326C69.003 23.881 68.8554 23.8367 68.7005 23.7925C68.6341 23.7703 68.5677 23.7556 68.4939 23.7334C68.339 23.6892 68.1841 23.6523 68.0291 23.6154L67.8373 23.5711C67.6676 23.5342 67.4979 23.4974 67.3356 23.4605C67.284 23.4531 67.2323 23.4383 67.1807 23.431C66.7454 23.335 66.3101 23.2686 65.8749 23.217C65.8158 23.2096 65.7568 23.2096 65.6978 23.2022C65.5429 23.1875 65.3953 23.1727 65.2404 23.1654C65.1519 23.158 65.0707 23.158 64.9822 23.1506C64.8568 23.1432 64.7387 23.1358 64.6207 23.1358C64.5248 23.1358 64.4289 23.1285 64.3256 23.1285C64.2592 23.1285 64.1928 23.1211 64.1338 23.1211H64.06C63.7427 23.1211 63.4255 23.1358 63.1156 23.158C63.0566 23.1654 62.9976 23.1654 62.9386 23.1727C62.6213 23.2022 62.3115 23.2318 62.0164 23.2834C58.394 23.8736 55.4651 25.777 53.6354 27.6362C52.5362 28.7502 51.8353 29.8495 51.6213 30.6389H51.6287C53.9748 30.0413 57.007 29.5175 60.3859 29.3404C64.96 29.0232 68.7816 31.6275 68.5972 35.6261C68.5751 36.1057 68.516 36.5557 68.4349 36.9762L68.4128 37.1016C68.3759 37.264 68.3316 37.4263 68.2873 37.5812C68.2652 37.655 68.2431 37.7287 68.2283 37.7951C68.184 37.9279 68.1398 38.0607 68.0881 38.1935C68.0586 38.2747 68.0217 38.3558 67.9849 38.437C67.9332 38.555 67.8816 38.6657 67.8299 38.769C67.7857 38.8575 67.7414 38.9387 67.6898 39.0198C67.6381 39.1157 67.5791 39.2116 67.5201 39.3002C67.461 39.3887 67.3946 39.4772 67.3356 39.5658C67.284 39.6395 67.2323 39.7133 67.1733 39.7871C67.0774 39.9051 66.9741 40.0158 66.8708 40.1191C66.8413 40.1486 66.8118 40.1855 66.7823 40.215C66.6421 40.3552 66.4946 40.4806 66.3397 40.606C66.3101 40.6281 66.2733 40.6503 66.2437 40.6724C66.1182 40.77 65.9876 40.8611 65.8527 40.9454C65.8085 40.9675 65.7716 40.997 65.7273 41.0192C65.5945 41.1003 65.4617 41.1741 65.3289 41.2405C65.2847 41.2626 65.2478 41.2847 65.2035 41.2995C65.0633 41.3659 64.9158 41.4323 64.7608 41.4913C64.7313 41.5061 64.6944 41.5208 64.6576 41.5282C64.4879 41.5946 64.3182 41.6536 64.1411 41.7053C64.1264 41.7126 64.1116 41.7126 64.0969 41.72C63.3001 41.9561 62.4443 42.0594 61.5737 42.0594C58.9473 42.0594 56.225 41.0856 54.6609 39.6912C54.5317 39.5736 54.3635 39.5079 54.1887 39.5067C54.1519 39.5067 54.115 39.5215 54.0855 39.5289C54.0559 39.5363 54.0191 39.5363 53.9895 39.551C53.9453 39.5658 53.901 39.5805 53.8568 39.6027C53.783 39.6395 53.724 39.6838 53.6649 39.7355C53.6502 39.7502 53.6428 39.765 53.628 39.7797C53.5764 39.8387 53.5321 39.9125 53.4952 39.9863C53.4879 40.001 53.4879 40.0084 53.4805 40.0232C53.4436 40.1191 53.4215 40.2297 53.4362 40.3478C53.6576 42.5758 55.0593 45.3646 58.394 47.4598C61.5663 49.4591 68.2431 49.4813 72.9942 46.2277L73.127 46.1392C73.2672 46.0359 73.4148 45.9326 73.5549 45.8294C73.614 45.7851 73.6804 45.7334 73.7394 45.6818C73.946 45.5195 74.1452 45.3498 74.337 45.1727L74.6247 44.9072C74.728 44.826 74.8165 44.7301 74.905 44.6416Z" fill="#312D2D"/>
<path d="M74.905 44.6416C75.0083 44.5309 75.1116 44.4276 75.2149 44.3169C75.2887 44.2358 75.3625 44.1473 75.4362 44.0661C75.6059 43.8669 75.7682 43.6677 75.9232 43.4611L75.9896 43.3726C76.1371 43.1734 76.2699 42.9668 76.4027 42.7529C76.4396 42.6939 76.4765 42.6275 76.5134 42.5684C76.6388 42.3545 76.7642 42.1405 76.8822 41.9118C76.9044 41.875 76.9191 41.8454 76.9339 41.8086C77.2142 41.2552 77.4577 40.6576 77.6569 40.0306L77.679 39.9642C78.0848 38.6583 78.3209 37.2049 78.3209 35.5671C78.3209 32.2915 77.1405 29.7019 75.3403 27.7468C75.3182 27.7247 75.3034 27.71 75.2887 27.6878C75.1485 27.5403 75.001 27.3927 74.8534 27.2452L74.7649 27.1566C74.5932 26.9933 74.416 26.8359 74.2337 26.6845C74.0861 26.5591 73.9386 26.441 73.791 26.323C73.7541 26.2935 73.7173 26.2713 73.6877 26.2418L73.2008 25.8877C73.1713 25.8729 73.1492 25.8508 73.1197 25.8361C72.5295 25.4377 71.9171 25.0835 71.2826 24.7811C71.2605 24.7663 71.231 24.7589 71.2089 24.7442C71.0244 24.6556 70.84 24.5745 70.6555 24.4933L70.4859 24.4196C70.3236 24.3532 70.1612 24.2868 69.9989 24.2277C69.9399 24.2056 69.8735 24.1835 69.8145 24.1613C69.6596 24.1023 69.5046 24.0507 69.3571 23.999L69.1579 23.9326C69.003 23.881 68.8554 23.8367 68.7005 23.7925C68.6341 23.7703 68.5677 23.7556 68.4939 23.7334C68.339 23.6892 68.1841 23.6523 68.0291 23.6154L67.8373 23.5711C67.6676 23.5342 67.4979 23.4974 67.3356 23.4605C67.284 23.4531 67.2323 23.4383 67.1807 23.431C66.7454 23.335 66.3101 23.2686 65.8749 23.217C65.8158 23.2096 65.7568 23.2096 65.6978 23.2022C65.5429 23.1875 65.3953 23.1727 65.2404 23.1654C65.1519 23.158 65.0707 23.158 64.9822 23.1506C64.8568 23.1432 64.7387 23.1358 64.6207 23.1358C64.5248 23.1358 64.4289 23.1285 64.3256 23.1285C64.2592 23.1285 64.1928 23.1211 64.1338 23.1211H64.06C63.7427 23.1211 63.4255 23.1358 63.1156 23.158C63.0566 23.1654 62.9976 23.1654 62.9386 23.1727C62.6213 23.2022 62.3115 23.2318 62.0164 23.2834C58.394 23.8736 55.4651 25.777 53.6354 27.6362C52.5362 28.7502 51.8353 29.8495 51.6213 30.6389H51.6287C53.9748 30.0413 57.007 29.5175 60.3859 29.3404C64.96 29.0232 68.7816 31.6275 68.5972 35.6261C68.5751 36.1057 68.516 36.5557 68.4349 36.9762L68.4128 37.1016C68.3759 37.264 68.3316 37.4263 68.2873 37.5812C68.2652 37.655 68.2431 37.7287 68.2283 37.7951C68.1841 37.9279 68.1398 38.0607 68.0881 38.1935C68.0586 38.2747 68.0217 38.3558 67.9849 38.437C67.9332 38.555 67.8816 38.6657 67.8299 38.769C67.7857 38.8575 67.7414 38.9387 67.6898 39.0198C67.6381 39.1157 67.5791 39.2116 67.5201 39.3002C67.461 39.3887 67.3946 39.4772 67.3356 39.5658C67.284 39.6395 67.2323 39.7133 67.1733 39.7871C67.0774 39.9051 66.9741 40.0158 66.8708 40.1191C66.8413 40.1486 66.8118 40.1855 66.7823 40.215C66.6421 40.3552 66.4946 40.4806 66.3397 40.606C66.3101 40.6281 66.2733 40.6503 66.2437 40.6724C66.1182 40.77 65.9877 40.8611 65.8527 40.9454C65.8085 40.9675 65.7716 40.997 65.7273 41.0192C65.5945 41.1003 65.4617 41.1741 65.3289 41.2405C65.2847 41.2626 65.2478 41.2847 65.2035 41.2995C65.0633 41.3659 64.9158 41.4323 64.7608 41.4913C64.7313 41.5061 64.6944 41.5208 64.6576 41.5282C64.4879 41.5946 64.3182 41.6536 64.1411 41.7053C64.1264 41.7126 64.1116 41.7126 64.0969 41.72C63.3001 41.9561 62.4443 42.0594 61.5737 42.0594C58.9473 42.0594 56.225 41.0856 54.6609 39.6912C54.5317 39.5736 54.3635 39.5079 54.1887 39.5067C54.1519 39.5067 54.115 39.5215 54.0855 39.5289C54.0559 39.5363 54.0191 39.5363 53.9895 39.551C53.9453 39.5658 53.901 39.5805 53.8568 39.6027C53.783 39.6395 53.724 39.6838 53.6649 39.7355C53.6502 39.7502 53.6428 39.765 53.628 39.7797C53.5764 39.8387 53.5321 39.9125 53.4952 39.9863C53.4879 40.001 53.4879 40.0084 53.4805 40.0232C53.4436 40.1191 53.4215 40.2297 53.4362 40.3478C53.6576 42.5758 55.0593 45.3646 58.394 47.4598C61.5663 49.4591 68.2431 49.4813 72.9942 46.2277L73.127 46.1392C73.2672 46.0359 73.4148 45.9326 73.5549 45.8293C73.614 45.7851 73.6804 45.7334 73.7394 45.6818C73.946 45.5195 74.1452 45.3498 74.337 45.1727L74.6247 44.9072C74.728 44.826 74.8165 44.7301 74.905 44.6416Z" fill="#20B2AA"/>
<path d="M67.9367 80.296C67.8375 80.2553 67.7333 80.228 67.6269 80.2148H60.7657C60.6624 80.2296 60.5591 80.2517 60.4559 80.296C59.8361 80.5468 59.4894 81.1961 59.7845 81.8748C60.0796 82.5609 61.4444 84.4865 64.1963 84.4865C66.9481 84.4865 68.313 82.5609 68.6081 81.8748C68.8958 81.1887 68.5565 80.5468 67.9367 80.296Z" fill="#DBA689"/>
<path d="M48.0522 80.971C50.6925 80.971 52.8329 78.7547 52.8329 76.0207C52.8329 73.2867 50.6925 71.0703 48.0522 71.0703C45.4119 71.0703 43.2715 73.2867 43.2715 76.0207C43.2715 78.7547 45.4119 80.971 48.0522 80.971Z" fill="#312D2D"/>
<path d="M80.3061 80.971C82.9464 80.971 85.0868 78.7547 85.0868 76.0207C85.0868 73.2867 82.9464 71.0703 80.3061 71.0703C77.6658 71.0703 75.5254 73.2867 75.5254 76.0207C75.5254 78.7547 77.6658 80.971 80.3061 80.971Z" fill="#312D2D"/>
<path d="M71.0677 90.5754C68.4118 92.1542 59.7062 92.1542 57.0577 90.5754C55.5305 89.6679 53.9738 91.0549 54.6083 92.4419C55.228 93.8068 59.9792 96.9644 64.0885 96.9644C68.1905 96.9644 72.8826 93.8068 73.5023 92.4419C74.1294 91.0549 72.5875 89.6679 71.0677 90.5754Z" fill="#444444"/>
<defs>
<linearGradient id="paint0_linear_1_518" x1="63.434" y1="0" x2="63.434" y2="125.665" gradientUnits="userSpaceOnUse">
<stop stop-color="#AFC1DC"/>
<stop offset="1" stop-color="#E2E5ED"/>
</linearGradient>
</defs>
</svg>
